<svg version="1.1" xmlns="http://www.w3.org/2000/svg" xmlns:xlink="http://www.w3.org/1999/xlink" width="1024" height="1024" viewBox="-100,348,1024,1024"><g id="document" fill="#ffffff" fill-rule="nonzero" stroke="#000000" stroke-width="0" stroke-linecap="butt" stroke-linejoin="miter" stroke-miterlimit="10" stroke-dasharray="" stroke-dashoffset="0" font-family="none" font-weight="none" font-size="none" text-anchor="none" style="mix-blend-mode: normal"><rect x="-68.35937" y="169.92188" transform="scale(1.46286,2.048)" width="700" height="500" id="Shape 1 1" vector-effect="non-scaling-stroke"/></g><g fill="none" fill-rule="nonzero" stroke="none" stroke-width="none" stroke-linecap="none" stroke-linejoin="none" stroke-miterlimit="10" stroke-dasharray="" stroke-dashoffset="0" font-family="none" font-weight="none" font-size="none" text-anchor="none" style="mix-blend-mode: normal"><g id="stage"><g id="layer1 1"><text x="244.55125" y="407.84124" transform="scale(2.18588,2.18588)" id="PointText 1" fill="#000000" stroke="none" stroke-width="1" stroke-linecap="butt" stroke-linejoin="miter" font-family="font-RobotoMono-Medium" font-weight="normal" font-size="40" text-anchor="middle">Softbytes</text><g id="Group 1"><path d="M242.58755,852.03214" id="Path 1" fill="none" stroke="#000000" stroke-width="1" stroke-linecap="round" stroke-linejoin="round"/><path d="M250.29164,866.79906c-11.64171,4.875 -24.3726,14.54856 -41.31424,23.9207v-13.00605l19.64348,-11.2609l-19.64348,-10.91907v-13.12217l39.98629,23.2915z" id="CompoundPath 1" fill="#4c9722" stroke="none" stroke-width="1" stroke-linecap="butt" stroke-linejoin="miter"/><path d="M211.43112,894.35496h45.98662" id="Path 1" fill="#000000" stroke="#4d9723" stroke-width="10" stroke-linecap="square" stroke-linejoin="round"/><g id="Group 1" fill="#4d9723" stroke="none" stroke-width="1" stroke-linecap="butt" stroke-linejoin="miter"><path d="M144.18808,893.39469h-7.85898v-5.33288v0c-1.63729,-0.09355 -3.32135,-0.2339 -5.0522,-0.42102v0v0c-1.73085,-0.18712 -3.41492,-0.39763 -5.0522,-0.63152v0v-7.85898v0c0.28068,0 0.76017,0.03509 1.43847,0.10525v0v0c0.67831,0.07017 1.47355,0.12864 2.38577,0.17542v0v0c0.91221,0.04678 1.90627,0.10525 2.9822,0.17542v0v0c1.07593,0.07017 2.17526,0.10525 3.29797,0.10525v0v-7.01695l-2.31559,-0.35085v0c-1.96475,-0.28068 -3.53186,-0.73678 -4.70135,-1.3683v0v0c-1.16949,-0.63152 -2.07,-1.43847 -2.70152,-2.42085v0v0c-0.63152,-0.98237 -1.05254,-2.12847 -1.26305,-3.4383v0v0c-0.21051,-1.30983 -0.31576,-2.76 -0.31576,-4.3505v0v0c0,-3.78915 0.93559,-6.50237 2.80678,-8.13966v0v0c1.87118,-1.63729 4.70135,-2.64305 8.49051,-3.01729v0v-5.61356h7.85898v5.54339v0c1.77763,0.09355 3.37983,0.22221 4.80661,0.38593v0v0c1.42678,0.16373 2.81847,0.38593 4.17508,0.66661v0v7.85898v0c-1.49694,-0.14034 -3.04068,-0.25729 -4.63119,-0.35085v0v0c-1.59051,-0.09355 -3.04068,-0.18712 -4.3505,-0.28068v0v6.80644l2.73661,0.28068v0c1.35661,0.18712 2.54949,0.46779 3.57864,0.84203v0v0c1.02915,0.37424 1.89457,0.97067 2.59627,1.78932v0v0c0.70169,0.81864 1.22797,1.91796 1.57881,3.29797v0v0c0.35085,1.38 0.52627,3.16932 0.52627,5.36796v0v0c0,2.01153 -0.18712,3.73068 -0.56136,5.15746v0v0c-0.37424,1.42678 -0.98237,2.59627 -1.8244,3.50847v0v0c-0.84203,0.91221 -1.96475,1.6139 -3.36814,2.10508v0v0c-1.40339,0.49118 -3.15763,0.83034 -5.26271,1.01746v0v5.40305M136.3291,863.50249v-5.0522v0c-0.70169,0.37424 -1.05254,1.16949 -1.05254,2.38577v0v0c0,0.84203 0.04678,1.45017 0.14034,1.8244v0v0c0.09355,0.37424 0.39763,0.65492 0.91221,0.84203v0M144.18808,873.95775v4.98204v0c0.37424,-0.28068 0.59644,-0.61983 0.66661,-1.01746v0v0c0.07017,-0.39763 0.10525,-0.87712 0.10525,-1.43847v0v0c0,-0.74848 -0.04678,-1.30983 -0.14034,-1.68407v0v0c-0.09355,-0.37424 -0.30407,-0.65492 -0.63152,-0.84203z" id="CompoundPath 1"/><path d="M122.68563,873.07959h-28.51323v-13.09497h28.51323z" id="CompoundPath 1"/></g><path d="M178.21631,805.85921h101.02433c0.06728,60.98016 0.06728,83.76041 0,121.4947h-101.02433z" id="Path 1" fill-opacity="0" fill="#ffffff" stroke="#4d9723" stroke-width="10" stroke-linecap="round" stroke-linejoin="round"/><path d="M180.29059,924.66366h-102.26396v-121.4947h102.26396z" id="Path 1" fill-opacity="0" fill="#ffffff" stroke="#4d9723" stroke-width="10" stroke-linecap="round" stroke-linejoin="round"/></g></g></g></g></svg>